<svg width="114" height="24" viewBox="0 0 114 24" fill="none" xmlns="http://www.w3.org/2000/svg">
<path d="M7.104 18L4.448 13.44H2.688V18H1.232V6.848H4.832C5.67467 6.848 6.384 6.992 6.96 7.28C7.54667 7.568 7.984 7.95733 8.272 8.448C8.56 8.93867 8.704 9.49867 8.704 10.128C8.704 10.896 8.48 11.5733 8.032 12.16C7.59467 12.7467 6.93333 13.136 6.048 13.328L8.848 18H7.104ZM2.688 12.272H4.832C5.62133 12.272 6.21333 12.08 6.608 11.696C7.00267 11.3013 7.2 10.7787 7.2 10.128C7.2 9.46667 7.00267 8.95467 6.608 8.592C6.224 8.22933 5.632 8.048 4.832 8.048H2.688V12.272ZM12.4224 8.032V11.76H16.4864V12.96H12.4224V16.8H16.9664V18H10.9664V6.832H16.9664V8.032H12.4224ZM25.7615 15.52H20.8975L20.0015 18H18.4655L22.4975 6.912H24.1775L28.1935 18H26.6575L25.7615 15.52ZM25.3455 14.336L23.3295 8.704L21.3135 14.336H25.3455ZM33.4227 6.848C34.6388 6.848 35.6894 7.07733 36.5748 7.536C37.4708 7.984 38.1534 8.62933 38.6228 9.472C39.1028 10.3147 39.3428 11.3067 39.3428 12.448C39.3428 13.5893 39.1028 14.5813 38.6228 15.424C38.1534 16.256 37.4708 16.896 36.5748 17.344C35.6894 17.7813 34.6388 18 33.4227 18H29.9508V6.848H33.4227ZM33.4227 16.8C34.8628 16.8 35.9614 16.4213 36.7188 15.664C37.4761 14.896 37.8548 13.824 37.8548 12.448C37.8548 11.0613 37.4708 9.97867 36.7028 9.2C35.9454 8.42133 34.8521 8.032 33.4227 8.032H31.4068V16.8H33.4227ZM56.8409 6.928V18H55.3849V9.744L51.7049 18H50.6809L46.9849 9.728V18H45.5289V6.928H47.0969L51.1929 16.08L55.2889 6.928H56.8409ZM64.3661 18.112C63.3315 18.112 62.3875 17.872 61.5341 17.392C60.6808 16.9013 60.0035 16.224 59.5021 15.36C59.0115 14.4853 58.7661 13.504 58.7661 12.416C58.7661 11.328 59.0115 10.352 59.5021 9.488C60.0035 8.61333 60.6808 7.936 61.5341 7.456C62.3875 6.96533 63.3315 6.72 64.3661 6.72C65.4115 6.72 66.3608 6.96533 67.2141 7.456C68.0675 7.936 68.7395 8.608 69.2301 9.472C69.7208 10.336 69.9661 11.3173 69.9661 12.416C69.9661 13.5147 69.7208 14.496 69.2301 15.36C68.7395 16.224 68.0675 16.9013 67.2141 17.392C66.3608 17.872 65.4115 18.112 64.3661 18.112ZM64.3661 16.848C65.1448 16.848 65.8435 16.6667 66.4621 16.304C67.0915 15.9413 67.5821 15.424 67.9341 14.752C68.2968 14.08 68.4781 13.3013 68.4781 12.416C68.4781 11.52 68.2968 10.7413 67.9341 10.08C67.5821 9.408 67.0968 8.89067 66.4781 8.528C65.8595 8.16533 65.1555 7.984 64.3661 7.984C63.5768 7.984 62.8728 8.16533 62.2541 8.528C61.6355 8.89067 61.1448 9.408 60.7821 10.08C60.4301 10.7413 60.2541 11.52 60.2541 12.416C60.2541 13.3013 60.4301 14.08 60.7821 14.752C61.1448 15.424 61.6355 15.9413 62.2541 16.304C62.8835 16.6667 63.5875 16.848 64.3661 16.848ZM77.7603 18L75.1043 13.44H73.3443V18H71.8883V6.848H75.4883C76.3309 6.848 77.0403 6.992 77.6163 7.28C78.2029 7.568 78.6403 7.95733 78.9283 8.448C79.2163 8.93867 79.3603 9.49867 79.3603 10.128C79.3603 10.896 79.1363 11.5733 78.6883 12.16C78.2509 12.7467 77.5896 13.136 76.7043 13.328L79.5043 18H77.7603ZM73.3443 12.272H75.4883C76.2776 12.272 76.8696 12.08 77.2643 11.696C77.6589 11.3013 77.8563 10.7787 77.8563 10.128C77.8563 9.46667 77.6589 8.95467 77.2643 8.592C76.8803 8.22933 76.2883 8.048 75.4883 8.048H73.3443V12.272ZM83.0786 8.032V11.76H87.1426V12.96H83.0786V16.8H87.6226V18H81.6226V6.832H87.6226V8.032H83.0786ZM107.989 14.4C108.149 14.0587 108.304 13.76 108.453 13.504C108.613 13.248 108.768 13.0347 108.917 12.864H99.589V12.192H108.917C108.768 12.0107 108.613 11.792 108.453 11.536C108.304 11.28 108.149 10.9867 107.989 10.656H108.549C109.221 11.4347 109.925 12.0107 110.661 12.384V12.672C109.925 13.0347 109.221 13.6107 108.549 14.4H107.989Z" fill="#57B33E"/>
</svg>
