<svg width="688" height="658" viewBox="0 0 688 658" fill="none" xmlns="http://www.w3.org/2000/svg">
<g clip-path="url(#clip0_13_267)">
<path opacity="0.05" d="M83.9252 487.896C21.9052 416.876 -16.8356 316.94 9.96552 222.983C31.6654 146.93 106.162 83.1985 187.908 91.6382C255.882 98.6424 297.149 159.424 351.936 192.71C385.149 212.887 423.163 224.986 462.046 226.406C532.532 228.977 603.759 192.111 653.176 263.935C697.413 328.235 666.316 418.848 623.185 475.039C577.274 534.827 508.147 574.817 436.114 594.584C387.029 608.056 334.816 612.662 284.388 604.774C209.292 593.038 136.848 548.504 83.9409 487.896H83.9252Z" fill="#57B33E"/>
<path d="M545.229 212.271C539.307 213.675 532.674 211.467 528.773 206.797C524.888 202.128 523.908 195.203 526.372 189.634C528.836 184.065 534.616 180.137 540.697 179.869C540.554 174.3 546.777 169.757 552.226 170.924C552.952 163.116 559.254 156.238 566.85 154.234C574.447 152.231 583.133 155.417 587.618 161.854C589.782 159.14 595.152 159.188 597.015 162.122C601.579 155.133 610.029 151.363 618.305 152.578C626.564 153.793 633.861 160.134 636.198 168.148C638.046 166.839 640.778 166.634 642.8 167.659C644.821 168.684 646.18 170.877 646.211 173.133C654.203 169.741 664.816 173.038 670.248 179.806C675.681 186.573 675.966 196.969 670.928 204.021C665.874 211.072 655.94 214.18 647.759 211.23C646.053 214.716 642.452 216.751 638.583 217.162C634.714 217.588 630.686 215.884 628.27 212.839C625.143 218.739 618.936 222.904 612.303 223.614C605.654 224.339 598.737 221.579 594.409 216.483C593.399 218.992 591.045 220.711 588.376 221.058C585.692 221.405 582.865 220.206 581.254 218.045C576.089 222.683 568.587 224.765 561.702 223.74C554.832 222.715 548.814 218.219 545.229 212.271Z" fill="white"/>
<path d="M78.0659 90.9441C72.6172 93.6101 65.6366 93.2946 60.8513 89.5875C56.0501 85.8803 54.0602 78.7183 56.8082 73.3074C59.5562 67.9123 67.1212 65.3725 72.3013 68.5275C70.3588 66.177 71.2274 62.3121 72.9805 59.8196C74.7177 57.3271 78.208 56.1913 81.0824 57.2009C82.3458 46.9786 90.5267 37.7343 100.461 34.9894C110.41 32.2288 121.829 35.999 128.194 44.1075C129.694 41.4099 132.789 39.5485 135.853 39.1856C138.917 38.8228 142.139 40.0217 144.224 42.2934C149.151 37.198 156.574 34.737 163.57 35.8413C170.567 36.9456 176.916 41.615 180.027 47.9882C183.422 45.7008 188.571 46.8366 190.782 50.2756C196.104 47.231 202.769 47.3572 208.186 50.2598C213.587 53.1625 217.33 58.952 217.741 65.0728C222.621 64.7099 228.37 68.1174 229.918 72.7553C231.465 77.3932 229.491 82.9619 225.369 85.5806C221.247 88.215 215.356 87.6471 211.803 84.3028C210.255 89.3824 205.612 93.6732 200.59 95.4085C195.567 97.1438 189.724 96.3235 185.381 93.2631C181.101 101.624 172.004 107.114 162.67 108.25C153.336 109.385 143.545 105.631 137.369 98.532C135.869 101.056 132.189 101.987 129.252 102.05C126.314 102.113 123.392 100.583 121.797 98.1218C116.554 103.738 106.446 103.391 101.061 97.9168C97.9337 100.362 93.4958 100.63 89.5949 99.8413C85.694 99.0526 80.0084 94.4304 78.0817 90.9599L78.0659 90.9441Z" fill="white"/>
<path d="M197.305 657.653H160.27L174.847 202.301H182.728L197.305 657.653Z" fill="#A1C5EB"/>
<path d="M183.675 204.116H173.899C172.936 204.116 172.146 202.917 172.146 201.434V198.626C172.13 197.127 172.904 195.912 173.868 195.912H183.707C184.67 195.912 185.46 197.127 185.444 198.626V201.434C185.428 202.917 184.639 204.116 183.675 204.116Z" fill="#A1C5EB"/>
<path d="M164.597 657.653H134.227L146.182 284.206H152.641L164.597 657.653Z" fill="#A1C5EB"/>
<path d="M153.415 285.689H145.392C144.603 285.689 143.955 284.711 143.955 283.481V281.177C143.939 279.947 144.571 278.953 145.377 278.953H153.447C154.237 278.953 154.884 279.947 154.868 281.177V283.481C154.852 284.695 154.205 285.689 153.415 285.689Z" fill="#A1C5EB"/>
<path d="M560.612 391.919C560.075 389.427 559.554 386.919 559.048 384.41C558.701 382.707 558.353 380.987 558.006 379.268C557.311 375.813 556.648 372.358 556 368.888C555.59 366.711 555.179 364.518 554.784 362.325C554.5 360.827 554.231 359.328 553.963 357.813C553.71 356.394 553.458 354.958 553.205 353.523C552.636 350.289 552.084 347.039 551.547 343.789C549.446 343.474 547.346 343.19 545.245 342.922C544.977 341.313 544.692 339.719 544.424 338.11C520.039 334.435 495.654 334.435 471.254 338.11C470.985 339.719 470.717 341.313 470.433 342.922C468.332 343.19 466.232 343.474 464.131 343.789C463.594 347.071 463.026 350.352 462.457 353.617C462.204 355.053 461.952 356.488 461.699 357.924C461.43 359.438 461.162 360.937 460.878 362.451C460.483 364.644 460.072 366.837 459.662 369.03C459.014 372.5 458.335 375.955 457.64 379.41C457.308 381.145 456.961 382.849 456.614 384.568C456.108 387.092 455.587 389.585 455.05 392.093C435.893 482.769 405.428 569.943 364.713 653.914H650.981C610.234 569.895 579.769 482.659 560.612 391.919Z" fill="#A1C5EB"/>
<path d="M506.062 87.3947C502.651 93.6101 496.397 98.2007 489.448 99.5889C482.499 100.977 474.618 99.1315 469.074 94.7144C462.994 105.473 451.528 112.998 439.241 114.291C426.954 115.585 415.093 110.979 406.897 101.734C403.469 106.451 397.657 109.338 391.814 109.212C385.986 109.086 379.827 106.293 376.589 101.435C375.294 109.543 368.377 116.437 360.196 117.194C361.759 120.964 361.317 125.508 359.075 128.915C356.816 132.323 352.678 134.531 348.588 134.578C351.399 138.049 352.599 142.781 351.762 147.183C350.925 151.568 348.083 155.544 344.197 157.752C340.486 159.866 336.064 160.339 331.784 160.229C327.804 160.118 323.666 159.472 320.413 157.184C316.875 154.676 314.822 150.417 314.475 146.11C314.143 141.803 315.391 137.465 317.491 133.679C313.053 134.657 308.394 132.733 305.899 128.947C303.404 125.161 303.498 119.829 306.152 116.137C299.992 108.944 297.892 98.2796 300.213 89.0984C302.519 79.9172 309.5 72.0454 318.328 68.6222C315.706 55.513 321.06 41.1891 331.91 33.3646C342.76 25.5401 358.238 24.704 369.877 31.3138C371.441 26.4235 376.21 22.4008 381.185 21.1388C386.16 19.8768 391.751 21.3596 395.446 24.9091C404.259 12.0996 417.904 3.42322 433.24 0.836087C448.575 -1.75105 464.921 2.11388 477.461 11.3108C482.183 7.91916 490.285 8.14001 495.907 9.62288C501.529 11.1058 506.394 15.2073 508.826 20.4762C511.684 19.0722 515.412 19.6401 517.591 21.9749C519.771 24.3096 520.181 28.0957 518.57 30.8563C524.098 30.2569 530.257 32.7493 533.748 37.0875C537.238 41.4099 538.328 47.5465 536.559 52.8154C541.534 52.4053 546.714 55.1028 548.688 59.6776C550.662 64.2525 549.399 70.0262 545.703 73.3547C541.992 76.6991 536.117 77.3459 531.773 74.9165C531.726 80.5009 528.915 86.1958 524.019 88.8933C519.123 91.6067 510.832 90.3447 506.062 87.4262V87.3947Z" fill="white"/>
<path d="M287.626 109.07C278.245 109.07 278.229 123.63 287.626 123.63C297.023 123.63 297.023 109.07 287.626 109.07Z" fill="white"/>
<path d="M288.779 91.938C282.92 91.938 282.904 101.04 288.779 101.04C294.654 101.04 294.654 91.938 288.779 91.938Z" fill="white"/>
<path d="M529.483 12.7621C523.624 12.7621 523.608 21.8644 529.483 21.8644C535.359 21.8644 535.359 12.7621 529.483 12.7621Z" fill="white"/>
<path d="M545.624 19.5297C536.243 19.5297 536.227 34.0902 545.624 34.0902C555.021 34.0902 555.021 19.5297 545.624 19.5297Z" fill="white"/>
<path d="M368.045 9.59133C362.186 9.59133 362.17 18.6936 368.045 18.6936C373.92 18.6936 373.92 9.59133 368.045 9.59133Z" fill="white"/>
<path d="M394.973 169.41C353.673 163.889 312.358 163.952 271.059 169.568C271.406 167.659 271.754 165.719 272.07 163.81C272.844 159.44 273.586 155.055 274.312 150.653C313.464 144.785 352.584 144.785 391.719 150.653C392.43 154.991 393.172 159.345 393.946 163.668C394.278 165.577 394.625 167.501 394.957 169.394L394.973 169.41Z" fill="#619AC9"/>
<path d="M562.697 655.302H103.367C168.703 521.103 217.567 381.808 248.317 236.896C249.17 232.89 250.007 228.898 250.828 224.876C251.396 222.147 251.949 219.402 252.486 216.641C253.592 211.12 254.681 205.583 255.724 200.046C256.387 196.543 257.05 193.041 257.682 189.539C258.124 187.126 258.567 184.728 258.993 182.314C259.404 180.027 259.814 177.724 260.209 175.436C261.125 170.215 262.025 164.977 262.894 159.724C309.658 152.72 356.406 152.72 403.154 159.724C404.006 164.914 404.891 170.104 405.807 175.278C406.202 177.566 406.612 179.853 407.023 182.125C407.449 184.538 407.876 186.936 408.334 189.334C408.965 192.836 409.613 196.338 410.276 199.825C411.319 205.362 412.393 210.883 413.498 216.404C414.051 219.149 414.604 221.894 415.172 224.623C415.993 228.63 416.83 232.637 417.683 236.628C448.433 381.634 497.313 521.024 562.697 655.302Z" fill="#CBE3F8"/>
<path d="M407.023 182.125C357.685 175.531 308.331 175.61 258.993 182.314C259.404 180.027 259.814 177.724 260.209 175.436C261.125 170.215 262.025 164.977 262.894 159.724C309.658 152.72 356.406 152.72 403.154 159.724C404.006 164.914 404.891 170.104 405.807 175.278C406.202 177.566 406.612 179.853 407.023 182.125Z" fill="#EA5C4C"/>
<path d="M410.276 199.825C358.759 192.647 307.241 192.742 255.724 200.046C256.387 196.543 257.05 193.041 257.682 189.539C307.905 182.882 358.111 182.803 408.334 189.334C408.965 192.836 409.613 196.338 410.276 199.825Z" fill="#EA5C4C"/>
<path d="M144.761 650.459C144.129 650.459 143.608 649.97 143.576 649.339L114.027 120.475H99.0551L69.5059 649.339C69.4744 649.986 68.9532 650.507 68.2583 650.459C67.6108 650.428 67.1054 649.86 67.137 649.213L96.7492 119.229C96.7808 118.598 97.302 118.109 97.9337 118.109H115.148C115.78 118.109 116.301 118.598 116.333 119.229L145.945 649.213C145.977 649.86 145.487 650.428 144.824 650.459C144.808 650.459 144.776 650.459 144.761 650.459Z" fill="#3A739B"/>
<path d="M69.4586 629.92C69.0006 629.92 68.5742 629.668 68.3689 629.226C68.1004 628.627 68.3689 627.932 68.969 627.664L139.296 596.224L73.0279 554.593C72.6804 554.373 72.4751 553.994 72.4751 553.584C72.4751 553.174 72.6962 552.795 73.0594 552.574L135 515.755L77.1657 481.255C76.8182 481.049 76.5971 480.671 76.5813 480.245C76.5813 479.835 76.7866 479.456 77.1341 479.235L131.163 445.429L80.9245 412.995C80.6086 412.79 80.4033 412.443 80.3875 412.064C80.3717 411.686 80.5296 411.323 80.8139 411.086L127.467 373.068L85.0307 337.306C84.7622 337.085 84.6043 336.754 84.6043 336.406C84.6043 336.059 84.7464 335.728 85.0149 335.507L123.55 302.49L88.6315 272.501C88.3473 272.264 88.2051 271.917 88.2209 271.555C88.2367 271.192 88.4262 270.86 88.7263 270.64L120.202 248.523L91.1269 230.586C90.7952 230.381 90.5899 230.034 90.5741 229.656C90.5583 229.277 90.7163 228.898 91.0163 228.662L118.102 207.271L93.3695 188.545C93.0852 188.325 92.9115 187.977 92.8957 187.615C92.8957 187.252 93.0537 186.905 93.3379 186.668L115.922 168.747L95.3279 153.556C95.0278 153.335 94.8541 152.988 94.8541 152.625C94.8541 152.262 95.012 151.915 95.2963 151.679L114.28 136.487L97.0809 120.16C96.6071 119.702 96.5913 118.961 97.0335 118.488C97.4758 118.014 98.2338 117.999 98.7076 118.44L116.886 135.698C117.138 135.935 117.265 136.266 117.249 136.613C117.249 136.96 117.075 137.276 116.807 137.481L97.9653 152.562L118.56 167.754C118.86 167.974 119.034 168.322 119.034 168.684C119.034 169.047 118.876 169.41 118.591 169.631L95.9912 187.567L120.723 206.292C121.008 206.513 121.181 206.86 121.197 207.223C121.197 207.586 121.039 207.933 120.755 208.17L93.7959 229.466L122.95 247.466C123.282 247.671 123.503 248.034 123.519 248.444C123.519 248.838 123.345 249.217 123.013 249.453L91.3164 271.728L126.125 301.622C126.393 301.843 126.535 302.174 126.535 302.521C126.535 302.868 126.377 303.2 126.125 303.42L87.5892 336.438L130.057 372.216C130.326 372.437 130.484 372.784 130.484 373.131C130.484 373.478 130.326 373.809 130.041 374.046L83.5461 411.938L133.974 444.498C134.321 444.719 134.511 445.098 134.511 445.508C134.511 445.918 134.306 446.281 133.958 446.502L79.9927 480.261L137.875 514.793C138.238 514.998 138.459 515.392 138.459 515.802C138.459 516.212 138.238 516.607 137.875 516.812L75.9022 553.647L142.407 595.42C142.771 595.656 142.992 596.067 142.96 596.508C142.929 596.95 142.66 597.329 142.265 597.502L69.9166 629.841C69.7587 629.904 69.6007 629.952 69.427 629.952L69.4586 629.92Z" fill="#3A739B"/>
<path d="M143.608 629.92C143.45 629.92 143.276 629.889 143.118 629.81L70.7694 597.471C70.3746 597.297 70.1061 596.903 70.0745 596.477C70.0429 596.035 70.2482 595.625 70.6273 595.388L137.133 553.615L75.1599 516.78C74.7967 516.575 74.5756 516.181 74.5756 515.771C74.5756 515.361 74.7967 514.966 75.1599 514.761L133.042 480.229L79.0766 446.47C78.7292 446.249 78.5239 445.887 78.5239 445.476C78.5239 445.066 78.7292 444.688 79.0608 444.467L129.489 411.907L82.9934 374.015C82.7249 373.794 82.5669 373.462 82.5511 373.1C82.5511 372.753 82.7091 372.406 82.9776 372.185L125.446 336.406L86.9101 303.389C86.6416 303.168 86.4994 302.837 86.4994 302.49C86.4994 302.143 86.6574 301.811 86.9101 301.591L121.718 271.697L90.0213 249.422C89.6897 249.185 89.5002 248.822 89.516 248.412C89.516 248.018 89.7371 247.655 90.0845 247.434L119.239 229.435L92.2798 208.138C91.9955 207.917 91.8218 207.57 91.8376 207.192C91.8376 206.829 92.0113 206.482 92.3114 206.261L117.044 187.536L94.4434 169.599C94.1592 169.363 93.9854 169.016 94.0012 168.653C94.0012 168.29 94.1907 167.943 94.475 167.722L115.069 152.531L96.2281 137.449C95.9596 137.229 95.8017 136.913 95.7859 136.582C95.7859 136.235 95.9122 135.903 96.1491 135.667L114.327 118.409C114.801 117.951 115.543 117.983 116.001 118.456C116.459 118.929 116.428 119.671 115.954 120.128L98.755 136.456L117.738 151.647C118.023 151.884 118.196 152.231 118.181 152.594C118.181 152.956 117.991 153.304 117.707 153.524L97.1125 168.716L119.697 186.637C119.981 186.857 120.155 187.204 120.139 187.583C120.139 187.946 119.965 188.293 119.665 188.514L94.933 207.239L122.018 228.63C122.318 228.867 122.492 229.245 122.461 229.624C122.445 230.003 122.224 230.365 121.908 230.555L92.8325 248.491L124.308 270.608C124.608 270.813 124.798 271.16 124.814 271.523C124.83 271.886 124.687 272.233 124.403 272.47L89.4844 302.458L128.02 335.476C128.288 335.697 128.43 336.028 128.43 336.375C128.43 336.722 128.273 337.053 128.004 337.274L85.5676 373.037L132.221 411.055C132.521 411.291 132.679 411.654 132.647 412.033C132.631 412.411 132.426 412.759 132.11 412.964L81.872 445.397L135.901 479.204C136.248 479.425 136.453 479.803 136.453 480.213C136.453 480.624 136.232 481.002 135.869 481.223L78.0343 515.723L139.975 552.543C140.323 552.748 140.544 553.126 140.56 553.552C140.56 553.962 140.354 554.341 140.007 554.562L73.7385 596.193L144.066 627.633C144.666 627.901 144.934 628.595 144.666 629.194C144.476 629.636 144.034 629.889 143.576 629.889L143.608 629.92Z" fill="#3A739B"/>
<path d="M106.541 170.75C106.541 170.75 106.399 170.75 106.336 170.734L36.5139 158.351C35.9454 158.256 35.5347 157.767 35.5347 157.184V152.593C35.5347 151.946 36.0717 151.41 36.7192 151.41H176.363C177.01 151.41 177.547 151.946 177.547 152.593V157.184C177.547 157.751 177.137 158.241 176.568 158.351L106.746 170.734C106.746 170.734 106.604 170.75 106.541 170.75ZM37.9037 156.19L106.541 168.368L175.178 156.19V153.776H37.9037V156.19Z" fill="#3A739B"/>
<path d="M36.7192 177.582C36.0717 177.582 35.5347 177.045 35.5347 176.398V152.594C35.5347 152.152 35.7716 151.758 36.1665 151.552C36.5455 151.347 37.0193 151.379 37.3825 151.616L45.974 157.437L57.4083 151.537C57.9137 151.284 58.5297 151.411 58.8771 151.852L65.9051 160.734L80.3401 151.584C80.8139 151.284 81.4456 151.363 81.8404 151.773L96.1017 166.744C96.5597 167.217 96.5281 167.959 96.0543 168.416C95.5805 168.874 94.8383 168.842 94.3803 168.369L80.7981 154.092L66.2841 163.305C65.763 163.636 65.0996 163.51 64.7206 163.037L57.6294 154.077L46.4478 159.85C46.053 160.055 45.595 160.024 45.2318 159.771L37.9037 154.802V176.383C37.9037 177.029 37.3667 177.566 36.7192 177.566V177.582Z" fill="#3A739B"/>
<path d="M176.363 177.582C175.715 177.582 175.178 177.045 175.178 176.398V154.818L167.85 159.787C167.487 160.024 167.029 160.055 166.634 159.866L155.453 154.092L148.361 163.053C147.982 163.526 147.303 163.636 146.798 163.321L132.284 154.108L118.702 168.385C118.244 168.858 117.502 168.874 117.028 168.432C116.554 167.974 116.538 167.233 116.98 166.76L131.242 151.789C131.636 151.379 132.252 151.3 132.742 151.6L147.177 160.749L154.205 151.868C154.552 151.426 155.168 151.284 155.674 151.552L167.108 157.452L175.7 151.631C176.063 151.379 176.537 151.363 176.916 151.568C177.31 151.773 177.547 152.168 177.547 152.609V176.414C177.547 177.061 177.01 177.597 176.363 177.597V177.582Z" fill="#3A739B"/>
<path d="M183.265 338.394H29.8018C29.1543 338.394 28.6173 337.858 28.6173 337.211V332.163C28.6173 331.595 29.0279 331.106 29.5965 330.996L106.336 317.382C106.478 317.35 106.62 317.35 106.746 317.382L183.486 330.996C184.054 331.09 184.465 331.579 184.465 332.163V337.211C184.465 337.858 183.928 338.394 183.28 338.394H183.265ZM30.9705 336.028H182.08V333.157L106.525 319.748L30.9705 333.157V336.028Z" fill="#3A739B"/>
<path d="M29.8018 360.574C29.1543 360.574 28.6173 360.038 28.6173 359.391V337.211C28.6173 336.785 28.8384 336.391 29.2175 336.186L40.2885 329.86C40.6517 329.655 41.1097 329.655 41.473 329.86L51.628 335.712L60.7249 325.727C60.9302 325.49 61.2303 325.348 61.5462 325.348C61.8462 325.332 62.1621 325.443 62.399 325.664L73.2016 335.539L85.7098 321.325C86.1362 320.836 86.8943 320.789 87.3839 321.215C87.8735 321.641 87.9208 322.398 87.4944 322.887L74.1807 338.016C73.9754 338.252 73.6754 338.394 73.3595 338.41C73.0436 338.41 72.7278 338.315 72.4909 338.094L61.6725 328.203L52.7336 338.016C52.3545 338.426 51.7544 338.52 51.2648 338.236L40.8728 332.242L30.9863 337.889V359.391C30.9863 360.038 30.4493 360.574 29.8018 360.574Z" fill="#3A739B"/>
<path d="M183.265 360.574C182.617 360.574 182.08 360.038 182.08 359.391V337.889L172.193 332.242L161.802 338.236C161.312 338.52 160.712 338.426 160.333 338.016L151.394 328.203L140.575 338.094C140.339 338.315 140.023 338.41 139.707 338.41C139.391 338.394 139.091 338.252 138.886 338.016L125.572 322.887C125.145 322.398 125.193 321.641 125.682 321.215C126.172 320.789 126.914 320.836 127.357 321.325L139.865 335.539L150.667 325.664C150.904 325.458 151.204 325.348 151.52 325.348C151.836 325.348 152.136 325.506 152.341 325.727L161.438 335.712L171.593 329.86C171.957 329.655 172.415 329.655 172.778 329.86L183.849 336.186C184.212 336.391 184.449 336.785 184.449 337.211V359.391C184.449 360.038 183.912 360.574 183.265 360.574Z" fill="#3A739B"/>
<path d="M211.881 260.685H1.18408C0.536557 260.685 -0.000411987 260.149 -0.000411987 259.502V252.561C-0.000411987 251.962 0.441798 251.473 1.02615 251.394L106.383 237.512C106.493 237.512 106.588 237.512 106.699 237.512L212.055 251.394C212.639 251.473 213.082 251.978 213.082 252.561V259.502C213.082 260.149 212.545 260.685 211.897 260.685H211.881ZM2.36857 258.319H210.697V253.602L106.525 239.878L2.36857 253.602V258.319Z" fill="#3A739B"/>
<path d="M1.18408 278.969C0.536557 278.969 -0.000411987 278.433 -0.000411987 277.786V252.577C-0.000411987 252.151 0.220693 251.772 0.583937 251.552C0.947181 251.347 1.38939 251.331 1.75264 251.552L13.5975 258.114L26.8481 248.16C27.2587 247.844 27.8272 247.844 28.2537 248.16L41.9306 258.019L57.4869 244.185C57.9291 243.79 58.6082 243.79 59.0662 244.185L74.512 257.862L90.2578 239.957C90.6842 239.468 91.4423 239.42 91.9319 239.846C92.4215 240.272 92.4689 241.03 92.0425 241.519L75.507 260.307C75.3017 260.543 75.0016 260.685 74.6857 260.701C74.3699 260.717 74.0698 260.607 73.8329 260.401L58.2924 246.645L42.7992 260.401C42.3886 260.764 41.7727 260.796 41.3146 260.48L27.5745 250.573L14.4188 260.465C14.0398 260.749 13.5344 260.78 13.1395 260.559L2.38436 254.596V277.802C2.38436 278.448 1.84739 278.985 1.19987 278.985L1.18408 278.969Z" fill="#3A739B"/>
<path d="M1.18449 260.685C0.821245 260.685 0.458001 260.512 0.221103 260.196C-0.157935 259.66 -0.0473821 258.934 0.489587 258.54L12.3029 250.053C12.682 249.785 13.1873 249.753 13.5822 249.99L27.417 258.035L39.104 246.63C39.4988 246.251 40.1148 246.188 40.5728 246.472L58.5928 257.972L72.5224 242.276C72.7436 242.039 73.0436 241.881 73.3753 241.881C73.6911 241.881 74.0228 241.992 74.2439 242.228L90.9215 258.682C91.3796 259.139 91.3953 259.897 90.9215 260.354C90.4635 260.812 89.7055 260.827 89.2475 260.354L73.4542 244.784L59.6826 260.307C59.3035 260.749 58.656 260.827 58.1506 260.512L40.0674 248.98L28.412 260.37C28.033 260.749 27.4486 260.812 26.9906 260.543L13.0452 252.435L1.8636 260.48C1.65829 260.638 1.40559 260.701 1.1687 260.701L1.18449 260.685Z" fill="#3A739B"/>
<path d="M211.882 278.969C211.234 278.969 210.697 278.433 210.697 277.786V254.58L199.942 260.543C199.532 260.764 199.026 260.733 198.663 260.449L185.507 250.558L171.767 260.465C171.309 260.78 170.709 260.764 170.283 260.386L154.789 246.63L139.249 260.386C139.012 260.591 138.696 260.701 138.396 260.685C138.08 260.67 137.796 260.528 137.575 260.291L121.039 241.503C120.613 241.014 120.66 240.257 121.15 239.831C121.639 239.405 122.382 239.452 122.824 239.941L138.57 257.846L154.015 244.169C154.458 243.774 155.137 243.774 155.595 244.169L171.151 258.004L184.828 248.144C185.254 247.844 185.823 247.844 186.234 248.144L199.468 258.098L211.313 251.536C211.677 251.331 212.135 251.347 212.482 251.536C212.845 251.757 213.066 252.135 213.066 252.561V277.77C213.066 278.417 212.529 278.953 211.882 278.953V278.969Z" fill="#3A739B"/>
<path d="M211.882 260.685C211.645 260.685 211.392 260.607 211.187 260.465L200.005 252.419L186.06 260.528C185.602 260.796 185.018 260.717 184.639 260.354L172.983 248.964L154.9 260.496C154.41 260.812 153.763 260.717 153.368 260.291L139.596 244.768L123.803 260.338C123.345 260.796 122.587 260.796 122.129 260.338C121.671 259.881 121.671 259.124 122.129 258.666L138.807 242.213C139.044 241.992 139.359 241.866 139.675 241.866C140.007 241.866 140.307 242.023 140.528 242.26L154.458 257.956L172.478 246.456C172.936 246.156 173.552 246.22 173.947 246.614L185.634 258.019L199.468 249.974C199.863 249.737 200.369 249.769 200.748 250.037L212.561 258.524C213.098 258.903 213.208 259.644 212.829 260.181C212.593 260.496 212.229 260.67 211.866 260.67L211.882 260.685Z" fill="#3A739B"/>
<path d="M534.269 593.748H503.93L514.875 192.458H523.324L534.269 593.748Z" fill="#3A739B"/>
<path d="M551.073 208.422L521.603 201.56L519.739 192.915L635.677 167.943L636.656 172.455L618.826 179.964L551.073 208.422Z" fill="#8BB7E4"/>
<path d="M618.826 179.964L617.088 171.934L635.677 167.943L636.656 172.455L618.826 179.964Z" fill="#57B33E"/>
<path d="M512.585 163.983L521.382 192.915L514.812 198.847L435.182 111.042L438.625 107.934L454.023 119.608L512.585 163.983Z" fill="#8BB7E4"/>
<path d="M454.023 119.608L447.943 125.113L435.182 111.042L438.625 107.934L454.023 119.608Z" fill="#57B33E"/>
<path d="M493.301 219.496L513.975 197.427L522.424 200.14L486.099 312.917L481.693 311.513L484.11 292.346L493.301 219.496Z" fill="#8BB7E4"/>
<path d="M484.11 292.346L491.927 294.855L486.099 312.917L481.693 311.513L484.11 292.346Z" fill="#57B33E"/>
<path d="M518.981 204.952C523.211 204.952 526.641 201.526 526.641 197.301C526.641 193.075 523.211 189.65 518.981 189.65C514.751 189.65 511.321 193.075 511.321 197.301C511.321 201.526 514.751 204.952 518.981 204.952Z" fill="white"/>
<path d="M614.23 593.748H591.74L599.858 290.438H606.112L614.23 593.748Z" fill="#3A739B"/>
<path d="M622.553 278.338L606.618 294.082L600.442 291.826L630.592 209.369L633.813 210.552L631.476 224.671L622.553 278.338Z" fill="#8BB7E4"/>
<path d="M631.476 224.671L625.759 222.588L630.592 209.369L633.813 210.552L631.476 224.671Z" fill="#57B33E"/>
<path d="M579.469 284.869L601.09 290.8L602.227 297.252L515.664 312.397L515.064 309.021L528.489 303.988L579.469 284.869Z" fill="#8BB7E4"/>
<path d="M528.489 303.988L529.531 309.967L515.664 312.397L515.064 309.021L528.489 303.988Z" fill="#57B33E"/>
<path d="M606.681 318.88L601.011 297.205L606.033 292.993L662.447 360.306L659.809 362.514L648.738 353.428L606.681 318.88Z" fill="#8BB7E4"/>
<path d="M648.738 353.428L653.413 349.516L662.447 360.306L659.809 362.514L648.738 353.428Z" fill="#57B33E"/>
<path d="M608.228 295.975C607.155 298.909 603.901 300.423 600.948 299.351C598.01 298.278 596.494 295.028 597.568 292.078C598.642 289.128 601.895 287.63 604.849 288.702C607.786 289.775 609.302 293.025 608.228 295.975Z" fill="white"/>
<path d="M462.678 321.594C462.678 248.949 403.217 190.186 330.252 191.196C258.424 192.189 200.463 251.899 201.569 323.644C202.232 366.427 223.521 404.208 255.929 427.524L255.992 428.187C258.424 452.291 268.848 474.913 285.62 492.408H378.579C395.352 474.897 405.775 452.291 408.207 428.187L408.271 427.524C441.199 403.846 462.647 365.228 462.647 321.609L462.678 321.594Z" fill="white"/>
<path d="M337.675 439.419L333.663 404.902H332.116H330.584L326.572 439.419L307.747 450.114L312.927 492.408H332.116H351.32L356.5 450.114L337.675 439.419Z" fill="#CBE3F8"/>
<path d="M316.543 489.773L307.557 420.851L268.579 349.563L269.969 348.806L309.089 420.346L309.105 420.488L318.107 489.568L316.543 489.773Z" fill="#162A45"/>
<path d="M321.85 489.726L320.16 468.824H332.116V470.401H321.882L323.414 489.6L321.85 489.726Z" fill="#162A45"/>
<path d="M347.703 489.773L346.14 489.568L355.158 420.346L355.221 420.22L394.278 348.806L395.667 349.563L356.674 420.851L347.703 489.773Z" fill="#162A45"/>
<path d="M342.397 489.726L340.818 489.6L342.365 470.401H332.116V468.824H344.087L342.397 489.726Z" fill="#162A45"/>
<path d="M302.093 361.268C300.008 361.268 297.86 360.259 296.328 358.46C294.638 356.473 293.959 353.949 293.454 352.103C291.29 344.184 289.19 335.018 291.559 326.231C291.748 325.522 291.985 324.812 292.254 324.118C291.243 322.982 290.185 322.019 289.079 321.215C285.857 318.833 281.988 317.839 278.75 318.533C272.938 319.779 269.353 326.137 268.816 331.769C268.2 338.252 270.49 345.004 272.496 350.951C272.923 352.182 272.244 353.538 271.012 353.949C269.78 354.374 268.422 353.696 268.011 352.466C265.847 346.061 263.384 338.804 264.094 331.311C264.773 324.181 269.338 315.694 277.74 313.895C282.367 312.901 287.516 314.179 291.89 317.397C292.806 318.076 293.675 318.817 294.528 319.653C298.365 313.753 304.825 309.384 312.137 310.267C317.128 310.882 321.85 313.927 325.151 318.659C328.799 313.454 334.564 308.926 341.307 309.983C345.271 310.614 348.209 312.917 350.325 315.52C353.847 311.671 358.553 308.879 363.939 309.62C368.061 310.188 371.836 312.854 374.236 316.829C379.306 313.059 384.849 311.561 389.666 312.712C397.626 314.605 401.969 323.029 402.143 330.349C402.316 337.716 399.3 344.562 396.631 350.604C396.11 351.803 394.704 352.339 393.504 351.819C392.304 351.298 391.767 349.894 392.288 348.695C394.752 343.111 397.547 336.769 397.389 330.459C397.263 325.08 394.12 318.644 388.561 317.318C383.444 316.088 378.39 319.527 376.194 321.31C377.016 324.007 377.395 327.083 377.347 330.649C377.268 338.11 375.515 345.603 372.294 352.339C370.493 356.078 367.745 357.892 364.902 357.198C363.513 356.851 361.08 355.589 360.385 350.951C358.696 339.83 362.66 328.014 370.572 320.032C368.945 316.908 366.166 314.716 363.276 314.321C359.312 313.785 355.647 316.419 352.994 319.685C353.689 321.026 354.179 322.256 354.51 323.171C358.095 333.22 357.495 344.499 352.884 354.122C351.352 357.309 348.951 358.839 346.456 358.208C343.629 357.482 342.823 354.501 342.555 353.523C339.633 342.732 341.039 330.901 346.377 321.073C346.677 320.537 346.993 320 347.324 319.464C345.761 317.255 343.534 315.141 340.549 314.668C335.179 313.816 330.41 318.644 327.741 323.392C328.925 326.137 329.81 329.292 330.473 333.031C331.626 339.64 331.8 346.361 331.01 353.018C330.41 358.113 327.788 359.312 326.272 359.58C323.208 360.117 320.523 357.75 319.465 353.523C316.97 343.553 318.06 332.62 322.45 323.329C322.103 322.698 321.739 322.098 321.36 321.53C318.865 317.871 315.201 315.41 311.553 314.968C305.82 314.258 300.592 318.36 297.781 323.439C298.792 324.827 299.787 326.373 300.75 328.093C304.667 335.05 307.241 342.575 308.378 350.478C309.136 355.684 307.683 359.454 304.399 360.827C303.656 361.142 302.882 361.284 302.077 361.284L302.093 361.268ZM295.775 328.961C294.322 336.201 296.154 344.026 298.018 350.857C298.539 352.765 299.013 354.311 299.945 355.416C300.687 356.283 301.872 356.757 302.582 356.457C303.893 355.905 304.004 353.254 303.704 351.141C302.645 343.821 300.276 336.848 296.628 330.412C296.344 329.907 296.06 329.434 295.775 328.961ZM324.945 329.828C322.561 337.053 322.229 345.004 324.061 352.355C324.44 353.87 325.167 354.816 325.451 354.895C325.609 354.816 326.098 354.106 326.288 352.434C327.03 346.234 326.856 339.956 325.783 333.804C325.53 332.384 325.246 331.059 324.93 329.812L324.945 329.828ZM349.93 324.465C345.666 332.983 344.624 343.048 347.119 352.261C347.309 352.955 347.482 353.302 347.593 353.491C347.83 353.286 348.225 352.828 348.588 352.055C352.663 343.568 353.184 333.614 350.025 324.749C349.994 324.67 349.962 324.575 349.93 324.48V324.465ZM372.23 325.206C366.497 332.053 363.734 341.376 365.06 350.226C365.313 351.882 365.818 352.545 366.024 352.592C366.276 352.671 367.208 351.945 368.014 350.273C370.951 344.168 372.53 337.353 372.609 330.585C372.625 328.614 372.515 326.815 372.246 325.206H372.23Z" fill="#FFB652"/>
<path d="M312.927 581.033H351.32V586.87C351.32 590.656 348.241 593.748 344.434 593.748H319.813C316.022 593.748 312.927 590.671 312.927 586.87V581.033Z" fill="#245472"/>
<path d="M290.137 503.513H374.11V571.047C374.11 580.07 366.782 587.406 357.732 587.406H306.499C297.465 587.406 290.121 580.086 290.121 571.047V503.513H290.137Z" fill="#619AC9"/>
<path d="M282.936 489.663H381.312V498.56C381.312 503.687 377.142 507.852 372.009 507.852H292.222C287.089 507.852 282.92 503.687 282.92 498.56V489.663H282.936Z" fill="#245472"/>
<path d="M372.657 538.235H291.574C288.958 538.235 286.836 540.353 286.836 542.967V547.258C286.836 549.872 288.958 551.991 291.574 551.991H372.657C375.274 551.991 377.395 549.872 377.395 547.258V542.967C377.395 540.353 375.274 538.235 372.657 538.235Z" fill="#8BB7E4"/>
<path d="M372.657 517.774H291.574C288.958 517.774 286.836 519.893 286.836 522.507V526.798C286.836 529.411 288.958 531.53 291.574 531.53H372.657C375.274 531.53 377.395 529.411 377.395 526.798V522.507C377.395 519.893 375.274 517.774 372.657 517.774Z" fill="#8BB7E4"/>
<path d="M372.657 558.695H291.574C288.958 558.695 286.836 560.814 286.836 563.428V567.718C286.836 570.332 288.958 572.451 291.574 572.451H372.657C375.274 572.451 377.395 570.332 377.395 567.718V563.428C377.395 560.814 375.274 558.695 372.657 558.695Z" fill="#8BB7E4"/>
<path d="M641.031 658H385.876C383.696 658 381.927 656.233 381.927 654.056C381.927 651.879 383.696 650.112 385.876 650.112H641.031C644.948 650.112 648.122 646.942 648.122 643.029C648.122 639.117 644.948 635.946 641.031 635.946H521.508C514.48 635.946 508.763 630.236 508.763 623.216C508.763 616.196 514.48 610.485 521.508 610.485H610.645C620.089 610.485 627.765 602.818 627.765 593.385C627.765 583.951 620.089 576.284 610.645 576.284H564.829C552.399 576.284 542.308 566.188 542.308 553.789V535.174C542.308 532.997 544.076 531.23 546.256 531.23C548.435 531.23 550.204 532.997 550.204 535.174V553.789C550.204 561.85 556.774 568.397 564.829 568.397H610.645C624.448 568.397 635.661 579.613 635.661 593.385C635.661 607.156 624.432 618.373 610.645 618.373H521.508C518.839 618.373 516.659 620.55 516.659 623.216C516.659 625.882 518.839 628.059 521.508 628.059H641.031C649.291 628.059 656.019 634.779 656.019 643.029C656.019 651.28 649.291 658 641.031 658Z" fill="#EA5C4C"/>
<path d="M386.665 650.112H385.876V658H386.665V650.112Z" fill="#A83027"/>
<path d="M638.93 658H637.351V650.112H638.93V658ZM631.05 658H629.47V650.112H631.05V658ZM623.169 658H621.59V650.112H623.169V658ZM615.288 658H613.709V650.112H615.288V658ZM607.407 658H605.828V650.112H607.407V658ZM599.526 658H597.947V650.112H599.526V658ZM591.646 658H590.066V650.112H591.646V658ZM583.765 658H582.185V650.112H583.765V658ZM575.884 658H574.305V650.112H575.884V658ZM568.003 658H566.424V650.112H568.003V658ZM560.122 658H558.543V650.112H560.122V658ZM552.242 658H550.662V650.112H552.242V658ZM544.361 658H542.781V650.112H544.361V658ZM536.48 658H534.901V650.112H536.48V658ZM528.599 658H527.02V650.112H528.599V658ZM520.718 658H519.139V650.112H520.718V658ZM512.837 658H511.258V650.112H512.837V658ZM504.957 658H503.377V650.112H504.957V658ZM497.076 658H495.496V650.112H497.076V658ZM489.195 658H487.616V650.112H489.195V658ZM481.314 658H479.735V650.112H481.314V658ZM473.433 658H471.854V650.112H473.433V658ZM465.553 658H463.973V650.112H465.553V658ZM457.672 658H456.092V650.112H457.672V658ZM449.791 658H448.212V650.112H449.791V658ZM441.91 658H440.331V650.112H441.91V658ZM434.029 658H432.45V650.112H434.029V658ZM426.148 658H424.569V650.112H426.148V658ZM418.268 658H416.688V650.112H418.268V658ZM410.387 658H408.807V650.112H410.387V658ZM402.506 658H400.927V650.112H402.506V658ZM394.625 658H393.046V650.112H394.625V658ZM646.685 656.927L643.732 649.608C644.048 649.481 644.348 649.339 644.648 649.166L648.612 655.981C647.996 656.344 647.348 656.659 646.685 656.912V656.927ZM654.424 649.892L647.396 646.279C647.554 645.979 647.68 645.664 647.79 645.348L655.261 647.92C655.024 648.582 654.74 649.245 654.424 649.876V649.892ZM647.996 641.357C647.917 641.026 647.806 640.695 647.68 640.379L655.024 637.476C655.292 638.139 655.498 638.817 655.671 639.496L647.996 641.357ZM645.216 637.256C644.948 637.066 644.648 636.877 644.348 636.719L647.996 629.715C648.628 630.046 649.243 630.425 649.812 630.819L645.232 637.24L645.216 637.256ZM640.052 635.946H638.472V628.059H640.052V635.946ZM632.171 635.946H630.592V628.059H632.171V635.946ZM624.29 635.946H622.711V628.059H624.29V635.946ZM616.409 635.946H614.83V628.059H616.409V635.946ZM608.529 635.946H606.949V628.059H608.529V635.946ZM600.648 635.946H599.068V628.059H600.648V635.946ZM592.767 635.946H591.188V628.059H592.767V635.946ZM584.886 635.946H583.307V628.059H584.886V635.946ZM577.005 635.946H575.426V628.059H577.005V635.946ZM569.124 635.946H567.545V628.059H569.124V635.946ZM561.244 635.946H559.664V628.059H561.244V635.946ZM553.363 635.946H551.784V628.059H553.363V635.946ZM545.482 635.946H543.903V628.059H545.482V635.946ZM537.601 635.946H536.022V628.059H537.601V635.946ZM529.72 635.946H528.141V628.059H529.72V635.946ZM521.84 635.946H521.603C520.955 635.946 520.308 635.899 519.676 635.804L520.86 628.011C521.097 628.043 521.35 628.074 521.603 628.074H521.84V635.962V635.946ZM511.874 631.419C511.384 630.835 510.942 630.204 510.563 629.557L517.402 625.629C517.544 625.882 517.718 626.118 517.907 626.339L511.874 631.419ZM516.865 622.285L509.126 620.755C509.268 620.013 509.489 619.288 509.758 618.578L517.117 621.449C517.007 621.717 516.928 622.001 516.865 622.285ZM519.392 618.925L515.743 611.921C516.422 611.574 517.133 611.274 517.86 611.053L520.181 618.594C519.913 618.672 519.644 618.783 519.392 618.925ZM605.702 618.388H604.122V610.501H605.702V618.388ZM597.821 618.388H596.241V610.501H597.821V618.388ZM589.94 618.388H588.361V610.501H589.94V618.388ZM582.059 618.388H580.48V610.501H582.059V618.388ZM574.178 618.388H572.599V610.501H574.178V618.388ZM566.297 618.388H564.718V610.501H566.297V618.388ZM558.417 618.388H556.837V610.501H558.417V618.388ZM550.536 618.388H548.957V610.501H550.536V618.388ZM542.655 618.388H541.076V610.501H542.655V618.388ZM534.774 618.388H533.195V610.501H534.774V618.388ZM526.893 618.388H525.314V610.501H526.893V618.388ZM612.256 618.341L611.798 610.469C612.224 610.438 612.651 610.406 613.077 610.343L614.119 618.168C613.503 618.246 612.887 618.31 612.256 618.341ZM621.289 616.069L617.957 608.908C618.352 608.734 618.731 608.529 619.094 608.324L622.932 615.218C622.395 615.517 621.842 615.801 621.274 616.069H621.289ZM628.854 610.659L623.137 605.216C623.437 604.901 623.722 604.585 623.99 604.254L630.071 609.286C629.676 609.759 629.265 610.217 628.839 610.674L628.854 610.659ZM633.924 602.881L626.628 599.884C626.785 599.49 626.928 599.095 627.07 598.701L634.587 601.13C634.398 601.73 634.177 602.313 633.94 602.897L633.924 602.881ZM635.788 593.763L627.891 593.653V593.385C627.891 593.038 627.891 592.706 627.859 592.375L635.74 591.902C635.772 592.391 635.788 592.88 635.788 593.385V593.763ZM626.801 587.374C626.643 586.98 626.485 586.57 626.312 586.191L633.482 582.894C633.734 583.462 633.987 584.03 634.208 584.614L626.817 587.39L626.801 587.374ZM623.501 581.948C623.216 581.632 622.916 581.317 622.616 581.033L628.065 575.322C628.523 575.748 628.949 576.205 629.376 576.663L623.516 581.948H623.501ZM618.431 578.083C618.052 577.893 617.657 577.72 617.262 577.546L620.279 570.258C620.847 570.495 621.416 570.747 621.969 571.031L618.431 578.083ZM612.319 576.347C611.892 576.316 611.466 576.284 611.024 576.284L611.166 568.397C611.798 568.397 612.414 568.444 613.014 568.491L612.319 576.347ZM604.786 576.284H603.206V568.397H604.786V576.284ZM596.905 576.284H595.325V568.397H596.905V576.284ZM589.024 576.284H587.445V568.397H589.024V576.284ZM581.143 576.284H579.564V568.397H581.143V576.284ZM573.262 576.284H571.683V568.397H573.262V576.284ZM565.381 576.284H564.955C564.497 576.284 564.023 576.284 563.565 576.237L564.039 568.365C564.339 568.381 564.639 568.397 564.939 568.397H565.366V576.284H565.381ZM556.158 574.502C555.574 574.249 554.99 573.981 554.437 573.681L558.132 566.709C558.496 566.898 558.875 567.072 559.254 567.245L556.158 574.502ZM548.404 569.044C547.977 568.586 547.567 568.097 547.172 567.592L553.394 562.749C553.647 563.081 553.916 563.396 554.2 563.696L548.404 569.044ZM543.571 560.888C543.366 560.288 543.192 559.673 543.05 559.042L550.725 557.212C550.82 557.607 550.931 558.001 551.057 558.395L543.571 560.888ZM550.315 551.88H542.418V550.303H550.315V551.88ZM550.315 544.008H542.418V542.431H550.315V544.008Z" fill="#A83027"/>
<path d="M550.173 535.158H542.276V535.947H550.173V535.158Z" fill="#A83027"/>
<path d="M257.461 550.871H406.786C414.24 550.871 420.305 556.912 420.305 564.374V654.75H243.942V564.374C243.942 556.928 249.991 550.871 257.461 550.871Z" fill="#A1C5EB"/>
<path d="M239.631 640.632H424.601C431.25 640.632 436.651 646.027 436.651 652.668V657.89H227.58V652.668C227.58 646.027 232.982 640.632 239.631 640.632Z" fill="#3A739B"/>
<path d="M420.305 572.451H243.942V584.109H420.305V572.451Z" fill="#619AC9"/>
<path d="M420.305 587.927H243.942V595.846H420.305V587.927Z" fill="#619AC9"/>
<path d="M367.303 601.493H293.422V633.659H367.303V601.493Z" fill="#619AC9"/>
<path d="M364.302 604.696H296.407V630.457H364.302V604.696Z" fill="#EA5C4C"/>
<path d="M364.318 604.696H330.363V630.457H364.318V604.696Z" fill="#A83027"/>
<path d="M304.462 604.696H296.407V630.457H304.462V604.696Z" fill="#A83027"/>
<path d="M344.441 614.442C343.777 614.442 343.161 614.334 342.593 614.118C342.033 613.902 341.545 613.598 341.129 613.206C340.721 612.814 340.401 612.354 340.169 611.826C339.945 611.298 339.833 610.722 339.833 610.098C339.833 609.474 339.945 608.898 340.169 608.37C340.401 607.842 340.725 607.382 341.141 606.99C341.557 606.598 342.045 606.294 342.605 606.078C343.165 605.862 343.773 605.754 344.429 605.754C345.093 605.754 345.701 605.862 346.253 606.078C346.813 606.294 347.297 606.598 347.705 606.99C348.121 607.382 348.445 607.842 348.677 608.37C348.909 608.89 349.025 609.466 349.025 610.098C349.025 610.722 348.909 611.302 348.677 611.838C348.445 612.366 348.121 612.826 347.705 613.218C347.297 613.602 346.813 613.902 346.253 614.118C345.701 614.334 345.097 614.442 344.441 614.442ZM344.429 612.786C344.805 612.786 345.149 612.722 345.461 612.594C345.781 612.466 346.061 612.282 346.301 612.042C346.541 611.802 346.725 611.518 346.853 611.19C346.989 610.862 347.057 610.498 347.057 610.098C347.057 609.698 346.989 609.334 346.853 609.006C346.725 608.678 346.541 608.394 346.301 608.154C346.069 607.914 345.793 607.73 345.473 607.602C345.153 607.474 344.805 607.41 344.429 607.41C344.053 607.41 343.705 607.474 343.385 607.602C343.073 607.73 342.797 607.914 342.557 608.154C342.317 608.394 342.129 608.678 341.993 609.006C341.865 609.334 341.801 609.698 341.801 610.098C341.801 610.49 341.865 610.854 341.993 611.19C342.129 611.518 342.313 611.802 342.545 612.042C342.785 612.282 343.065 612.466 343.385 612.594C343.705 612.722 344.053 612.786 344.429 612.786ZM350.486 614.298V605.898H352.094L357.05 611.946H356.27V605.898H358.19V614.298H356.594L351.626 608.25H352.406V614.298H350.486Z" fill="white"/>
<path d="M311.875 614.442C311.211 614.442 310.595 614.334 310.027 614.118C309.467 613.902 308.979 613.598 308.563 613.206C308.155 612.814 307.835 612.354 307.603 611.826C307.379 611.298 307.267 610.722 307.267 610.098C307.267 609.474 307.379 608.898 307.603 608.37C307.835 607.842 308.159 607.382 308.575 606.99C308.991 606.598 309.479 606.294 310.039 606.078C310.599 605.862 311.207 605.754 311.863 605.754C312.527 605.754 313.135 605.862 313.687 606.078C314.247 606.294 314.731 606.598 315.139 606.99C315.555 607.382 315.879 607.842 316.111 608.37C316.343 608.89 316.459 609.466 316.459 610.098C316.459 610.722 316.343 611.302 316.111 611.838C315.879 612.366 315.555 612.826 315.139 613.218C314.731 613.602 314.247 613.902 313.687 614.118C313.135 614.334 312.531 614.442 311.875 614.442ZM311.863 612.786C312.239 612.786 312.583 612.722 312.895 612.594C313.215 612.466 313.495 612.282 313.735 612.042C313.975 611.802 314.159 611.518 314.287 611.19C314.423 610.862 314.491 610.498 314.491 610.098C314.491 609.698 314.423 609.334 314.287 609.006C314.159 608.678 313.975 608.394 313.735 608.154C313.503 607.914 313.227 607.73 312.907 607.602C312.587 607.474 312.239 607.41 311.863 607.41C311.487 607.41 311.139 607.474 310.819 607.602C310.507 607.73 310.231 607.914 309.991 608.154C309.751 608.394 309.563 608.678 309.427 609.006C309.299 609.334 309.235 609.698 309.235 610.098C309.235 610.49 309.299 610.854 309.427 611.19C309.563 611.518 309.747 611.802 309.979 612.042C310.219 612.282 310.499 612.466 310.819 612.594C311.139 612.722 311.487 612.786 311.863 612.786ZM319.72 609.678H323.752V611.238H319.72V609.678ZM319.864 614.298H317.92V605.898H324.268V607.458H319.864V614.298ZM327.384 609.678H331.416V611.238H327.384V609.678ZM327.528 614.298H325.584V605.898H331.932V607.458H327.528V614.298Z" fill="white"/>
<path d="M662.462 601.903H438.799V527.555H662.462V601.903ZM451.433 589.283H649.828V540.175H451.433V589.283Z" fill="#8BB7E4"/>
<path d="M688 533.881H413.277L458.477 399.917H642.8L688 533.881Z" fill="#A1C5EB"/>
<path d="M517.591 406.101L514.827 429.528C514.748 430.222 514.259 430.853 513.517 431.373C512.348 432.194 510.516 432.73 508.526 432.73H461.288C459.298 432.73 457.703 432.194 456.898 431.373C456.361 430.853 456.156 430.206 456.377 429.528L463.673 406.101C463.705 405.991 463.752 405.881 463.815 405.786C464.542 404.445 467.116 403.42 469.864 403.42H512.569C515.317 403.42 517.449 404.445 517.591 405.786C517.607 405.896 517.607 406.007 517.591 406.101Z" fill="#619AC9"/>
<path d="M513.627 439.592L510.121 469.265C509.947 470.669 508.636 471.931 506.773 472.673C505.652 473.13 504.309 473.398 502.919 473.398H449.412C448.022 473.398 446.806 473.13 445.874 472.673C444.326 471.931 443.553 470.669 443.995 469.265L453.234 439.592C453.55 438.598 454.592 437.699 456.013 437.084C457.229 436.548 458.73 436.216 460.278 436.216H508.052C509.584 436.216 510.958 436.532 511.937 437.084C513.09 437.699 513.753 438.583 513.627 439.592Z" fill="#619AC9"/>
<path d="M508.589 482.169L503.993 520.961C503.946 521.339 503.835 521.718 503.693 522.081C502.682 524.557 499.334 526.45 495.607 526.45H433.903C430.176 526.45 427.649 524.557 427.696 522.081C427.696 521.718 427.759 521.339 427.87 520.961L439.952 482.169C440.204 481.381 440.741 480.639 441.531 480.008C443.11 478.699 445.574 477.831 448.101 477.831H502.303C504.83 477.831 506.931 478.715 507.942 480.008C508.447 480.639 508.684 481.381 508.589 482.169Z" fill="#619AC9"/>
<path d="M577.605 406.101L579.864 429.528C579.927 430.222 579.595 430.853 578.948 431.373C577.953 432.194 576.231 432.73 574.241 432.73H527.02C525.014 432.73 523.308 432.194 522.313 431.373C521.666 430.853 521.334 430.206 521.397 429.528L523.656 406.101C523.656 405.991 523.687 405.881 523.735 405.786C524.161 404.445 526.53 403.42 529.278 403.42H571.983C574.731 403.42 577.084 404.445 577.526 405.786C577.574 405.896 577.59 406.007 577.605 406.101Z" fill="#619AC9"/>
<path d="M580.843 439.592L583.702 469.265C583.844 470.669 582.801 471.931 581.096 472.673C580.053 473.13 578.79 473.398 577.384 473.398H523.877C522.471 473.398 521.192 473.13 520.165 472.673C518.46 471.931 517.417 470.669 517.56 469.265L520.418 439.592C520.513 438.598 521.366 437.699 522.661 437.084C523.766 436.548 525.203 436.216 526.751 436.216H574.51C576.058 436.216 577.479 436.532 578.6 437.084C579.88 437.699 580.732 438.583 580.843 439.592Z" fill="#619AC9"/>
<path d="M584.965 482.169L588.708 520.961C588.74 521.339 588.708 521.718 588.645 522.081C588.155 524.557 585.218 526.45 581.491 526.45H519.802C516.059 526.45 513.122 524.557 512.648 522.081C512.569 521.718 512.553 521.339 512.585 520.961L516.328 482.169C516.407 481.381 516.802 480.639 517.433 480.008C518.728 478.699 521.002 477.831 523.545 477.831H577.732C580.259 477.831 582.549 478.715 583.828 480.008C584.475 480.639 584.87 481.381 584.949 482.169H584.965Z" fill="#619AC9"/>
<path d="M637.62 406.101L644.916 429.528C645.137 430.222 644.916 430.853 644.395 431.373C643.589 432.194 641.979 432.73 639.989 432.73H592.767C590.777 432.73 588.945 432.194 587.776 431.373C587.018 430.853 586.544 430.206 586.465 429.528L583.702 406.101C583.702 405.991 583.702 405.881 583.702 405.786C583.859 404.445 586.007 403.42 588.74 403.42H631.444C634.192 403.42 636.783 404.445 637.493 405.786C637.556 405.896 637.604 406.007 637.635 406.101H637.62Z" fill="#619AC9"/>
<path d="M648.043 439.592L657.282 469.265C657.724 470.669 656.951 471.931 655.403 472.673C654.471 473.13 653.239 473.398 651.849 473.398H598.342C596.936 473.398 595.625 473.13 594.473 472.673C592.609 471.931 591.298 470.669 591.124 469.265L587.618 439.592C587.508 438.598 588.155 437.699 589.308 437.084C590.303 436.548 591.661 436.216 593.209 436.216H640.968C642.516 436.216 644.016 436.532 645.248 437.084C646.669 437.699 647.712 438.583 648.027 439.592H648.043Z" fill="#619AC9"/>
<path d="M661.309 482.169L673.391 520.961C673.518 521.339 673.565 521.718 673.565 522.081C673.612 524.557 671.085 526.45 667.342 526.45H605.654C601.927 526.45 598.579 524.557 597.552 522.081C597.394 521.718 597.3 521.339 597.252 520.961L592.656 482.169C592.562 481.381 592.814 480.639 593.32 480.008C594.315 478.699 596.431 477.831 598.958 477.831H653.144C655.687 477.831 658.151 478.715 659.73 480.008C660.504 480.639 661.057 481.381 661.309 482.169Z" fill="#619AC9"/>
<path d="M577.526 405.581H523.735V405.975H577.526V405.581Z" fill="#CBE3F8"/>
<path d="M637.462 405.581H583.67V405.975H637.462V405.581Z" fill="#CBE3F8"/>
<path d="M517.591 405.581H463.799V405.975H517.591V405.581Z" fill="#CBE3F8"/>
<path d="M577.811 407.947H523.466V408.341H577.811V407.947Z" fill="#CBE3F8"/>
<path d="M638.251 407.947H583.907V408.341H638.251V407.947Z" fill="#CBE3F8"/>
<path d="M517.354 407.947H463.026V408.341H517.354V407.947Z" fill="#CBE3F8"/>
<path d="M578.032 410.361H523.229V410.755H578.032V410.361Z" fill="#CBE3F8"/>
<path d="M638.994 410.361H584.191V410.755H638.994V410.361Z" fill="#CBE3F8"/>
<path d="M517.07 410.361H462.268V410.755H517.07V410.361Z" fill="#CBE3F8"/>
<path d="M578.269 412.806H522.992V413.2H578.269V412.806Z" fill="#CBE3F8"/>
<path d="M639.767 412.806H584.491V413.2H639.767V412.806Z" fill="#CBE3F8"/>
<path d="M516.77 412.806H461.509V413.2H516.77V412.806Z" fill="#CBE3F8"/>
<path d="M578.521 415.298H522.756V415.693H578.521V415.298Z" fill="#CBE3F8"/>
<path d="M640.541 415.298H584.776V415.693H640.541V415.298Z" fill="#CBE3F8"/>
<path d="M516.486 415.298H460.736V415.693H516.486V415.298Z" fill="#CBE3F8"/>
<path d="M578.774 417.822H522.519V418.217H578.774V417.822Z" fill="#CBE3F8"/>
<path d="M641.331 417.822H585.076V418.217H641.331V417.822Z" fill="#CBE3F8"/>
<path d="M516.186 417.822H459.946V418.217H516.186V417.822Z" fill="#CBE3F8"/>
<path d="M579.011 420.41H522.266V420.804H579.011V420.41Z" fill="#CBE3F8"/>
<path d="M642.137 420.41H585.391V420.804H642.137V420.41Z" fill="#CBE3F8"/>
<path d="M515.87 420.41H459.141V420.804H515.87V420.41Z" fill="#CBE3F8"/>
<path d="M579.264 423.028H522.013V423.423H579.264V423.028Z" fill="#CBE3F8"/>
<path d="M642.942 423.028H585.692V423.423H642.942V423.028Z" fill="#CBE3F8"/>
<path d="M515.57 423.028H458.319V423.423H515.57V423.028Z" fill="#CBE3F8"/>
<path d="M579.516 425.694H521.745V426.089H579.516V425.694Z" fill="#CBE3F8"/>
<path d="M643.779 425.694H586.007V426.089H643.779V425.694Z" fill="#CBE3F8"/>
<path d="M515.254 425.694H457.498V426.089H515.254V425.694Z" fill="#CBE3F8"/>
<path d="M579.785 428.423H521.492V428.818H579.785V428.423Z" fill="#CBE3F8"/>
<path d="M644.632 428.423H586.339V428.818H644.632V428.423Z" fill="#CBE3F8"/>
<path d="M514.922 428.423H456.645V428.818H514.922V428.423Z" fill="#CBE3F8"/>
<path d="M578.948 431.184H522.313V431.578H578.948V431.184Z" fill="#CBE3F8"/>
<path d="M644.395 431.184H587.76V431.578H644.395V431.184Z" fill="#CBE3F8"/>
<path d="M513.501 431.184H456.882V431.578H513.501V431.184Z" fill="#CBE3F8"/>
<path d="M578.6 436.879H522.661V437.273H578.6V436.879Z" fill="#CBE3F8"/>
<path d="M645.264 436.879H589.324V437.273H645.264V436.879Z" fill="#CBE3F8"/>
<path d="M511.937 436.879H455.998V437.273H511.937V436.879Z" fill="#CBE3F8"/>
<path d="M580.875 439.813H520.387V440.207H580.875V439.813Z" fill="#CBE3F8"/>
<path d="M648.17 439.813H587.681V440.207H648.17V439.813Z" fill="#CBE3F8"/>
<path d="M513.58 439.813H453.092V440.207H513.58V439.813Z" fill="#CBE3F8"/>
<path d="M581.175 442.795H520.102V443.189H581.175V442.795Z" fill="#CBE3F8"/>
<path d="M649.101 442.795H588.029V443.189H649.101V442.795Z" fill="#CBE3F8"/>
<path d="M513.216 442.795H452.16V443.189H513.216V442.795Z" fill="#CBE3F8"/>
<path d="M581.459 445.839H519.802V446.234H581.459V445.839Z" fill="#CBE3F8"/>
<path d="M650.049 445.839H588.392V446.234H650.049V445.839Z" fill="#CBE3F8"/>
<path d="M512.869 445.839H451.228V446.234H512.869V445.839Z" fill="#CBE3F8"/>
<path d="M581.759 448.947H519.502V449.341H581.759V448.947Z" fill="#CBE3F8"/>
<path d="M651.012 448.947H588.755V449.341H651.012V448.947Z" fill="#CBE3F8"/>
<path d="M512.49 448.947H450.249V449.341H512.49V448.947Z" fill="#CBE3F8"/>
<path d="M582.075 452.102H519.202V452.496H582.075V452.102Z" fill="#CBE3F8"/>
<path d="M652.007 452.102H589.134V452.496H652.007V452.102Z" fill="#CBE3F8"/>
<path d="M512.127 452.102H449.27V452.496H512.127V452.102Z" fill="#CBE3F8"/>
<path d="M582.375 455.336H518.886V455.73H582.375V455.336Z" fill="#CBE3F8"/>
<path d="M653.002 455.336H589.513V455.73H653.002V455.336Z" fill="#CBE3F8"/>
<path d="M511.732 455.336H448.259V455.73H511.732V455.336Z" fill="#CBE3F8"/>
<path d="M582.691 458.617H518.57V459.011H582.691V458.617Z" fill="#CBE3F8"/>
<path d="M654.029 458.617H589.908V459.011H654.029V458.617Z" fill="#CBE3F8"/>
<path d="M511.369 458.617H447.248V459.011H511.369V458.617Z" fill="#CBE3F8"/>
<path d="M583.022 461.961H518.254V462.356H583.022V461.961Z" fill="#CBE3F8"/>
<path d="M655.071 461.961H590.303V462.356H655.071V461.961Z" fill="#CBE3F8"/>
<path d="M510.958 461.961H446.19V462.356H510.958V461.961Z" fill="#CBE3F8"/>
<path d="M583.354 465.4H517.923V465.795H583.354V465.4Z" fill="#CBE3F8"/>
<path d="M656.145 465.4H590.714V465.795H656.145V465.4Z" fill="#CBE3F8"/>
<path d="M510.547 465.4H445.132V465.795H510.547V465.4Z" fill="#CBE3F8"/>
<path d="M583.686 468.887H517.575V469.281H583.686V468.887Z" fill="#CBE3F8"/>
<path d="M657.235 468.887H591.124V469.281H657.235V468.887Z" fill="#CBE3F8"/>
<path d="M510.137 468.887H444.042V469.281H510.137V468.887Z" fill="#CBE3F8"/>
<path d="M581.096 472.468H520.181V472.862H581.096V472.468Z" fill="#CBE3F8"/>
<path d="M655.403 472.468H594.488V472.862H655.403V472.468Z" fill="#CBE3F8"/>
<path d="M506.789 472.468H445.874V472.862H506.789V472.468Z" fill="#CBE3F8"/>
<path d="M583.844 479.819H517.433V480.213H583.844V479.819Z" fill="#CBE3F8"/>
<path d="M659.746 479.819H593.335V480.213H659.746V479.819Z" fill="#CBE3F8"/>
<path d="M507.942 479.819H441.531V480.213H507.942V479.819Z" fill="#CBE3F8"/>
<path d="M585.107 483.621H516.154V484.015H585.107V483.621Z" fill="#CBE3F8"/>
<path d="M661.815 483.621H592.862V484.015H661.815V483.621Z" fill="#CBE3F8"/>
<path d="M508.4 483.621H439.462V484.015H508.4V483.621Z" fill="#CBE3F8"/>
<path d="M585.502 487.501H515.791V487.896H585.502V487.501Z" fill="#CBE3F8"/>
<path d="M663.031 487.501H593.32V487.896H663.031V487.501Z" fill="#CBE3F8"/>
<path d="M507.942 487.501H438.246V487.896H507.942V487.501Z" fill="#CBE3F8"/>
<path d="M664.263 491.461H593.793V491.855H664.263V491.461Z" fill="#CBE3F8"/>
<path d="M585.865 491.461H515.396V491.855H585.865V491.461Z" fill="#CBE3F8"/>
<path d="M507.468 491.461H437.014V491.855H507.468V491.461Z" fill="#CBE3F8"/>
<path d="M586.276 495.531H515.017V495.925H586.276V495.531Z" fill="#CBE3F8"/>
<path d="M665.526 495.531H594.267V495.925H665.526V495.531Z" fill="#CBE3F8"/>
<path d="M506.994 495.531H435.751V495.925H506.994V495.531Z" fill="#CBE3F8"/>
<path d="M586.655 499.68H514.606V500.074H586.655V499.68Z" fill="#CBE3F8"/>
<path d="M666.805 499.68H594.757V500.074H666.805V499.68Z" fill="#CBE3F8"/>
<path d="M506.504 499.68H434.456V500.074H506.504V499.68Z" fill="#CBE3F8"/>
<path d="M587.066 503.924H514.196V504.318H587.066V503.924Z" fill="#CBE3F8"/>
<path d="M668.132 503.924H595.262V504.318H668.132V503.924Z" fill="#CBE3F8"/>
<path d="M505.983 503.924H433.129V504.318H505.983V503.924Z" fill="#CBE3F8"/>
<path d="M587.508 508.262H513.785V508.656H587.508V508.262Z" fill="#CBE3F8"/>
<path d="M669.506 508.262H595.783V508.656H669.506V508.262Z" fill="#CBE3F8"/>
<path d="M505.494 508.262H431.787V508.656H505.494V508.262Z" fill="#CBE3F8"/>
<path d="M587.934 512.695H513.359V513.089H587.934V512.695Z" fill="#CBE3F8"/>
<path d="M670.88 512.695H596.305V513.089H670.88V512.695Z" fill="#CBE3F8"/>
<path d="M504.957 512.695H430.397V513.089H504.957V512.695Z" fill="#CBE3F8"/>
<path d="M588.361 517.238H512.916V517.632H588.361V517.238Z" fill="#CBE3F8"/>
<path d="M672.286 517.238H596.842V517.632H672.286V517.238Z" fill="#CBE3F8"/>
<path d="M504.42 517.238H428.991V517.632H504.42V517.238Z" fill="#CBE3F8"/>
<path d="M588.645 521.891H512.632V522.286H588.645V521.891Z" fill="#CBE3F8"/>
<path d="M673.581 521.891H597.568V522.286H673.581V521.891Z" fill="#CBE3F8"/>
<path d="M503.709 521.891H427.712V522.286H503.709V521.891Z" fill="#CBE3F8"/>
<path d="M688 533.881H413.277V546.58H688V533.881Z" fill="#3A739B"/>
<path d="M185.302 413.106H124.766V433.582H185.302V413.106Z" fill="#245472"/>
<path d="M202.706 436.69H107.378C99.8681 436.69 93.7801 442.771 93.7801 450.272V639.338C93.7801 646.839 99.8681 652.92 107.378 652.92H202.706C210.216 652.92 216.304 646.839 216.304 639.338V450.272C216.304 442.771 210.216 436.69 202.706 436.69Z" fill="#CBE3F8"/>
<path d="M202.706 657.653H107.362C97.2546 657.653 89.0264 649.434 89.0264 639.338V450.256C89.0264 440.16 97.2546 431.941 107.362 431.941H202.706C212.814 431.941 221.042 440.16 221.042 450.256V639.338C221.042 649.434 212.814 657.653 202.706 657.653ZM107.362 441.422C102.482 441.422 98.5023 445.382 98.5023 450.272V639.354C98.5023 644.228 102.466 648.204 107.362 648.204H202.706C207.586 648.204 211.566 644.244 211.566 639.354V450.272C211.566 445.397 207.602 441.422 202.706 441.422H107.362Z" fill="#619AC9"/>
<path d="M207.476 621.969H102.593V643.976H207.476V621.969Z" fill="#57B33E"/>
<path opacity="0.5" d="M207.476 595.578H102.593V617.584H207.476V595.578Z" fill="#57B33E"/>
<path opacity="0.4" d="M207.476 569.186H102.593V591.192H207.476V569.186Z" fill="#57B33E"/>
<path opacity="0.2" d="M207.476 542.794H102.593V564.8H207.476V542.794Z" fill="#57B33E"/>
</g>
<defs>
<clipPath id="clip0_13_267">
<rect width="688" height="658" fill="white"/>
</clipPath>
</defs>
</svg>
