<svg width="250" height="67" viewBox="0 0 250 67" fill="none" xmlns="http://www.w3.org/2000/svg">
<path fill-rule="evenodd" clip-rule="evenodd" d="M35.5994 0.0769577V66.787H28.0543V8.74003C22.2322 9.99704 17.171 13.2724 13.6001 17.7905C10.7754 21.3616 8.89711 25.7079 8.33731 30.4585H25.911V37.942H8.571C9.31564 42.1019 11.0847 45.9072 13.6001 49.0884V60.3437C5.34168 54.2574 0 44.4773 0 33.4406C0 22.4016 5.34168 12.6042 13.6001 6.51979C17.777 3.43033 22.6972 1.30305 28.0543 0.434C29.808 0.154977 31.6096 0 33.4402 0C34.1714 0 34.8853 0.0149331 35.5994 0.0769577Z" fill="#57B33E"/>
<path fill-rule="evenodd" clip-rule="evenodd" d="M66.8661 33.4394C66.8661 45.0673 60.9198 55.3135 51.9152 61.2907C47.6778 64.1173 42.7406 65.9955 37.4142 66.6154V58.403C43.1131 57.5028 48.1582 54.7093 51.9152 50.672C55.1602 47.1953 57.4275 42.8167 58.2965 37.9408H37.633V30.458H58.529C57.8769 24.9778 55.4861 20.0412 51.9152 16.2074V5.57326C60.9198 11.5654 66.8661 21.8116 66.8661 33.4394Z" fill="#57B33E"/>
<path d="M107.15 40.8763L105.309 34.2492H93.5803L91.6869 40.8763H85.4191L95.3511 7.31978H104.187L114.137 40.8763H107.15ZM99.515 13.4386L95.0443 29.0948H103.872L99.515 13.4386Z" fill="#434242"/>
<path d="M147.456 12.5796V40.8763H140.986V12.5796H131.782V7.31978H156.66V12.5796H147.456Z" fill="#434242"/>
<path d="M194.424 40.8763V26.2545H183.01V40.8763H176.699V7.31978H183.01V20.7846H194.424V7.31978H200.735V40.8763H194.424Z" fill="#434242"/>
<path d="M240.637 40.8763L238.796 34.2492H227.068L225.174 40.8763H218.906L228.838 7.31978H237.674L247.624 40.8763H240.637ZM233.002 13.4386L228.532 29.0948H237.359L233.002 13.4386Z" fill="#434242"/>
<path d="M84.4389 51.2398H91.0244V52.8622H86.0614V55.8018H91.0244V57.4243H86.0614V61.4902H91.0244V63.1126H84.4389V51.2398Z" fill="#434242"/>
<path d="M94.0941 50.7625L102.875 59.7786V51.2398H104.497V63.6661L95.7165 54.6789V63.1126H94.0941V50.7625Z" fill="#434242"/>
<path d="M108.044 51.2398H114.63V52.8622H109.667V55.8018H114.63V57.4243H109.667V61.4902H114.63V63.1126H108.044V51.2398Z" fill="#434242"/>
<path d="M118.043 51.2398H120.617C121.899 51.2398 122.939 51.5578 123.744 52.1942C124.549 52.8304 124.953 53.6448 124.953 54.6374C124.953 55.4297 124.695 56.1327 124.176 56.7403C123.658 57.348 122.85 57.7775 121.752 58.0256L125.182 63.1126H123.321L120.028 58.226H119.665V63.1126H118.043V51.2398ZM119.665 52.6714V56.8135C122.058 56.8643 123.254 56.1708 123.254 54.7328C123.254 54.2303 123.114 53.8167 122.834 53.4953C122.554 53.1771 122.182 52.9577 121.717 52.8431C121.25 52.7285 120.566 52.6714 119.665 52.6714Z" fill="#434242"/>
<path d="M140.086 53.1295L138.884 54.3129C137.669 53.1295 136.262 52.5377 134.662 52.5377C133.266 52.5377 132.101 52.9863 131.172 53.8803C130.243 54.7743 129.779 55.8909 129.779 57.2335C129.779 58.4042 130.231 59.4636 131.131 60.4022C132.031 61.3438 133.275 61.8147 134.859 61.8147C137.236 61.8147 138.731 60.7838 139.342 58.7222H136.116V57.0998H141.194C141.194 57.911 141.14 58.5601 141.031 59.0436C140.92 59.5272 140.697 60.0585 140.354 60.6408C140.01 61.2229 139.555 61.7446 138.986 62.206C138.416 62.6672 137.809 62.9981 137.156 63.1986C136.507 63.3957 135.731 63.4945 134.828 63.4945C132.776 63.4945 131.137 62.8517 129.916 61.5633C128.691 60.2748 128.08 58.805 128.08 57.1476C128.08 55.4042 128.707 53.9216 129.957 52.6967C131.207 51.472 132.725 50.8579 134.503 50.8579C135.563 50.8579 136.526 51.017 137.401 51.3383C138.276 51.6565 139.17 52.2546 140.086 53.1295Z" fill="#434242"/>
<path d="M144.53 51.2398H146.153V63.1126H144.53V51.2398Z" fill="#434242"/>
<path d="M149.875 51.2398H156.46V52.8622H151.497V55.8018H156.46V57.4243H151.497V61.4902H156.46V63.1126H149.875V51.2398Z" fill="#434242"/>
<path d="M166.879 52.5537L165.565 53.6067C165.218 53.2472 164.904 52.98 164.62 52.8018C164.34 52.6268 163.933 52.5377 163.399 52.5377C162.816 52.5377 162.346 52.6681 161.983 52.9322C161.62 53.1931 161.439 53.5334 161.439 53.9471C161.439 54.3034 161.598 54.6216 161.913 54.8952C162.231 55.1719 162.769 55.471 163.532 55.8018C164.293 56.1295 164.888 56.4349 165.311 56.7148C165.737 56.998 166.084 57.3097 166.357 57.6503C166.631 57.9938 166.831 58.3533 166.965 58.7319C167.099 59.1072 167.165 59.5082 167.165 59.9313C167.165 60.9175 166.806 61.7574 166.09 62.4509C165.371 63.1476 164.503 63.4945 163.481 63.4945C162.489 63.4945 161.611 63.224 160.847 62.6801C160.087 62.1359 159.501 61.3183 159.091 60.2335L160.714 59.7723C161.302 61.1083 162.202 61.7764 163.415 61.7764C164.003 61.7764 164.493 61.6016 164.881 61.2516C165.272 60.8984 165.466 60.4561 165.466 59.9218C165.466 59.6004 165.365 59.2791 165.161 58.9577C164.957 58.6333 164.706 58.3661 164.404 58.1593C164.102 57.9493 163.621 57.7044 162.96 57.4275C162.298 57.1476 161.789 56.8963 161.429 56.6672C161.07 56.4412 160.761 56.174 160.497 55.8591C160.236 55.5474 160.045 55.2355 159.921 54.9238C159.8 54.6151 159.74 54.2811 159.74 53.9279C159.74 53.0785 160.081 52.3532 160.764 51.7551C161.448 51.157 162.279 50.8579 163.252 50.8579C163.901 50.8579 164.557 50.998 165.222 51.2779C165.883 51.5578 166.437 51.9811 166.879 52.5537Z" fill="#434242"/>
<path d="M176.073 51.2398H178.459C179.808 51.2398 180.896 51.5578 181.723 52.191C182.55 52.8241 182.964 53.6448 182.964 54.6597C182.964 55.6778 182.528 56.5303 181.66 57.2207C180.788 57.9078 179.468 58.2452 177.696 58.226V63.1126H176.073V51.2398ZM177.696 52.6523V56.8135C178.908 56.8007 179.805 56.6291 180.39 56.2949C180.972 55.964 181.265 55.4297 181.265 54.6947C181.265 54.1412 181.046 53.664 180.603 53.2599C180.161 52.8559 179.191 52.6523 177.696 52.6523Z" fill="#434242"/>
<path d="M185.499 51.2398H187.211L190.93 59.6577L194.713 51.2398H196.418L190.911 63.4945L185.499 51.2398Z" fill="#434242"/>
<path d="M198.552 51.2398H205.844V52.8622H203V63.1126H201.377V52.8622H198.552V51.2398Z" fill="#434242"/>
<path d="M206.909 62.0247C206.909 61.681 207.033 61.3883 207.278 61.137C207.523 60.8889 207.822 60.7648 208.169 60.7648C208.513 60.7648 208.805 60.8889 209.057 61.137C209.305 61.3883 209.429 61.681 209.429 62.0247C209.429 62.3713 209.305 62.6704 209.06 62.9153C208.815 63.1604 208.519 63.2845 208.169 63.2845C207.822 63.2845 207.523 63.1636 207.278 62.9218C207.033 62.6767 206.909 62.3777 206.909 62.0247Z" fill="#434242"/>
<path d="M218.321 51.2398H219.943V61.4902H223.799V63.1126H218.321V51.2398Z" fill="#434242"/>
<path d="M225.38 51.2398H232.672V52.8622H229.828V63.1126H228.205V52.8622H225.38V51.2398Z" fill="#434242"/>
<path d="M235.741 51.2398H238.62C240.901 51.2398 242.6 51.841 243.711 53.0467C244.824 54.2524 245.381 55.63 245.381 57.1762C245.381 58.7351 244.805 60.1158 243.657 61.3152C242.505 62.5145 240.835 63.1126 238.64 63.1126H235.741V51.2398ZM237.364 52.8241V61.4902H237.456C238.659 61.4902 239.562 61.436 240.17 61.3278C240.777 61.2198 241.353 60.9811 241.897 60.6153C242.445 60.2493 242.877 59.7658 243.199 59.1613C243.52 58.5569 243.682 57.892 243.682 57.1667C243.682 56.2536 243.424 55.4297 242.912 54.6915C242.397 53.9566 241.783 53.4603 241.067 53.2057C240.351 52.9513 239.39 52.8241 238.181 52.8241H237.364Z" fill="#434242"/>
<path d="M247.48 62.0247C247.48 61.681 247.604 61.3883 247.849 61.137C248.094 60.8889 248.393 60.7648 248.74 60.7648C249.084 60.7648 249.376 60.8889 249.628 61.137C249.876 61.3883 250 61.681 250 62.0247C250 62.3713 249.876 62.6704 249.631 62.9153C249.386 63.1604 249.09 63.2845 248.74 63.2845C248.393 63.2845 248.094 63.1636 247.849 62.9218C247.604 62.6767 247.48 62.3777 247.48 62.0247Z" fill="#434242"/>
</svg>
